<?xml version="1.0" encoding="utf-8"?>
<!-- Generator: Adobe Illustrator 24.3.0, SVG Export Plug-In . SVG Version: 6.00 Build 0)  -->
<svg version="1.1" id="图层_1" xmlns="http://www.w3.org/2000/svg" xmlns:xlink="http://www.w3.org/1999/xlink" x="0px" y="0px"
	 viewBox="0 0 500 166" style="enable-background:new 0 0 500 166;" xml:space="preserve">
<style type="text/css">
	.st0{fill:#FFFFFF;}
</style>
<g id="_x33_9918df7-5781-613c-c216-ce35de511cce" transform="matrix(4.299999999999999,0,0,4.299999999999999,35.40499363541606,107.08600420951845)">
	<path class="st0" d="M2.3-13.5h6v-2.8H-6.8v2.8h6V4.9h3C2.3,4.9,2.3-13.5,2.3-13.5z M24.7-16.3V2.1h-9.9v-18.4H12V3l3.5,1.9h8.9
		L27.8,3v-19.2H24.7z M36.2-11.1L36.2-11.1l11,16H50v-21.2h-3v16l0,0l-11-16h-2.8V4.9h3V-11.1z M58.4-4.6h7.3v-2.6h-7.1v-6.3h9.1
		v-2.8H55.6V4.9h12.1V2.1h-9.1v-6.7C58.7-4.6,58.4-4.6,58.4-4.6z M79.4-3.5l4.8,8.4h3.5l-5-8.4l3.5-1.9v-8.6l-3.5-1.9H71.8V5.1h3
		v-8.4h4.5V-3.5z M74.9-13.5h8.2v7.3h-8.2V-13.5z M103.6-0.3v2.8h-8.9v-16.2h8.9v2.8h3v-3.5l-3.5-1.9h-8l-3.5,1.9V3.2l3.5,1.9h8
		l3.5-1.9v-3.5C106.6-0.3,103.6-0.3,103.6-0.3z"/>
</g>
</svg>
